# xmcd
#
# Track frame offsets:
#	150
#	18526
#	32154
#	41219
#	55963
#	72443
#	85012
#	107966
#	116170
#	127043
#	153396
#	169941
#	183505
#	200646
#	214534
#
# Disc length: 3062 seconds
#
# Revision: 0
# Processed by: cddbd v1.5.2PL0 Copyright (c) Steve Scherf et al.
# Submitted via: EasyCDDAExtractor 11.0.2.1
#
DISCID=e00bf40f
DTITLE=Peter Wildeman, Arjan Breukhoven, Robert Cekof, Liselotte Rokyta - Sfee
DTITLE=rvolle Instrumental Melodieën
DYEAR=1900
DGENRE=Instrumental
TTITLE0=Berdinieri
TTITLE1=Introspection IV
TTITLE2=Morning Mood
TTITLE3=Romance in E
TTITLE4=Introduction
TTITLE5=Nocturne
TTITLE6=Introspection I
TTITLE7=Gymnopedie I
TTITLE8=Rondo Russo
TTITLE9=Titanic Theme
TTITLE10=Thema uit Schindler's List
TTITLE11=Rondeau III
TTITLE12=Die Moldau
TTITLE13=Improvisatie over Bright Eyes
TTITLE14=Introspection II
EXTD=
EXTT0=
EXTT1=
EXTT2=
EXTT3=
EXTT4=
EXTT5=
EXTT6=
EXTT7=
EXTT8=
EXTT9=
EXTT10=
EXTT11=
EXTT12=
EXTT13=
EXTT14=
PLAYORDER=
